<svg xmlns="http://www.w3.org/2000/svg" viewBox="0 0 240 240" width="240" height="240">
  <defs><linearGradient id="c" x1="0" y1="0" x2="0" y2="1"><stop offset="0" stop-color="#e01230"/><stop offset="1" stop-color="#a80418"/></linearGradient></defs>
  <path d="M120 70c-40 0-70 26-70 60 0 6 4 10 10 10h96V96c0-14-14-26-36-26z" fill="url(#c)"/>
  <path d="M120 70c22 0 36 12 36 26v44h44c8 0 12-6 8-13-14-34-50-57-88-57z" fill="#c00f2a"/>
  <ellipse cx="120" cy="70" rx="10" ry="8" fill="#7d0312"/>
  <circle cx="120" cy="66" r="5" fill="#fff"/>
  <g transform="translate(66,86) scale(0.85)" fill="#fff">
    <path d="M52.1 4.9l4.9 9.1c.6 1 1.6.9 2.6.4l3.5-1.8-2.6 13.8c-.5 2.6 1.3 2.6 2.2 1.5l6.1-6.8 1.6 3.5c.3.7 1 .6 1.9.4l4.5-.9-1.6 6c-.2.9-.5 1.3.2 1.8l1.9 1.6-9.3 7.5c-.9.6-.6 1-.3 2.2l.9 3-9.1-.8c-1.1-.1-1.7.1-1.7.9l.3 9.4h-2.6l.3-9.4c0-.8-.6-1-1.7-.9l-9.1.8.9-3c.3-1.2.6-1.6-.3-2.2l-9.3-7.5 1.9-1.6c.7-.5.4-.9.2-1.8l-1.6-6 4.5.9c.9.2 1.6.3 1.9-.4l1.6-3.5 6.1 6.8c.9 1.1 2.7 1.1 2.2-1.5l-2.6-13.8 3.5 1.8c1 .5 2 .6 2.6-.4z"/>
  </g>
</svg>
