<svg xmlns="http://www.w3.org/2000/svg" viewBox="0 0 240 240" width="240" height="240">
  <defs><linearGradient id="h" x1="0" y1="0" x2="0" y2="1"><stop offset="0" stop-color="#2b2f38"/><stop offset="1" stop-color="#171a20"/></linearGradient></defs>
  <path d="M120 34c-16 0-24 10-30 14L44 66c-9 4-13 9-11 18l8 34c2 8 8 10 15 8l14-4v66c0 6 4 10 10 10h80c6 0 10-4 10-10v-66l14 4c7 2 13 0 15-8l8-34c2-9-2-14-11-18l-46-18c-6-4-14-14-30-14z" fill="url(#h)"/>
  <path d="M92 48c6 14 22 22 28 22s22-8 28-22c-6-4-12-14-28-14s-22 10-28 14z" fill="#0f1116"/>
  <path d="M120 70c-8 0-18-4-24-10v20c0 10 10 18 24 18s24-8 24-18V60c-6 6-16 10-24 10z" fill="#3a3f4a"/>
  <rect x="112" y="120" width="16" height="70" rx="8" fill="#0f1116"/>
  <circle cx="120" cy="66" r="4" fill="#d80621"/>
  <g transform="translate(94,132) scale(0.5)" fill="#d80621">
    <path d="M52.1 4.9l4.9 9.1c.6 1 1.6.9 2.6.4l3.5-1.8-2.6 13.8c-.5 2.6 1.3 2.6 2.2 1.5l6.1-6.8 1.6 3.5c.3.7 1 .6 1.9.4l4.5-.9-1.6 6c-.2.9-.5 1.3.2 1.8l1.9 1.6-9.3 7.5c-.9.6-.6 1-.3 2.2l.9 3-9.1-.8c-1.1-.1-1.7.1-1.7.9l.3 9.4h-2.6l.3-9.4c0-.8-.6-1-1.7-.9l-9.1.8.9-3c.3-1.2.6-1.6-.3-2.2l-9.3-7.5 1.9-1.6c.7-.5.4-.9.2-1.8l-1.6-6 4.5.9c.9.2 1.6.3 1.9-.4l1.6-3.5 6.1 6.8c.9 1.1 2.7 1.1 2.2-1.5l-2.6-13.8 3.5 1.8c1 .5 2 .6 2.6-.4z"/>
  </g>
</svg>
