<svg xmlns="http://www.w3.org/2000/svg" viewBox="0 0 240 240" width="240" height="240">
  <defs><linearGradient id="j" x1="0" y1="0" x2="0" y2="1"><stop offset="0" stop-color="#1f5f8b"/><stop offset="1" stop-color="#123c59"/></linearGradient></defs>
  <path d="M120 36c-14 0-22 8-32 12L44 68c-9 4-13 9-11 18l8 32c2 8 8 10 15 8l12-4v70c0 6 4 10 10 10h84c6 0 10-4 10-10v-70l12 4c7 2 13 0 15-8l8-32c2-9-2-14-11-18l-44-20c-10-4-18-12-32-12z" fill="url(#j)"/>
  <path d="M120 36c-6 0-11 2-15 4l15 12 15-12c-4-2-9-4-15-4z" fill="#0e2f47"/>
  <rect x="116" y="52" width="8" height="140" fill="#0e2f47"/>
  <rect x="116" y="70" width="8" height="6" rx="3" fill="#d8dde0"/>
  <rect x="116" y="92" width="8" height="6" rx="3" fill="#d8dde0"/>
  <rect x="116" y="114" width="8" height="6" rx="3" fill="#d8dde0"/>
  <rect x="116" y="136" width="8" height="6" rx="3" fill="#d8dde0"/>
  <path d="M64 92l18-8v40l-18 6z" fill="#2b74a5" opacity=".5"/>
  <g transform="translate(133,74) scale(0.42)" fill="#ffffff">
    <path d="M52.1 4.9l4.9 9.1c.6 1 1.6.9 2.6.4l3.5-1.8-2.6 13.8c-.5 2.6 1.3 2.6 2.2 1.5l6.1-6.8 1.6 3.5c.3.7 1 .6 1.9.4l4.5-.9-1.6 6c-.2.9-.5 1.3.2 1.8l1.9 1.6-9.3 7.5c-.9.6-.6 1-.3 2.2l.9 3-9.1-.8c-1.1-.1-1.7.1-1.7.9l.3 9.4h-2.6l.3-9.4c0-.8-.6-1-1.7-.9l-9.1.8.9-3c.3-1.2.6-1.6-.3-2.2l-9.3-7.5 1.9-1.6c.7-.5.4-.9.2-1.8l-1.6-6 4.5.9c.9.2 1.6.3 1.9-.4l1.6-3.5 6.1 6.8c.9 1.1 2.7 1.1 2.2-1.5l-2.6-13.8 3.5 1.8c1 .5 2 .6 2.6-.4z"/>
  </g>
</svg>
