<svg xmlns="http://www.w3.org/2000/svg" viewBox="0 0 100 100" width="100" height="100">
  <rect x="2" y="2" width="96" height="96" rx="24" fill="#16130f"/>
  <g transform="translate(-8,12) scale(1.12)" fill="#f2efe6">
    <path d="M52.1 4.9l4.9 9.1c.6 1 1.6.9 2.6.4l3.5-1.8-2.6 13.8c-.5 2.6 1.3 2.6 2.2 1.5l6.1-6.8 1.6 3.5c.3.7 1 .6 1.9.4l4.5-.9-1.6 6c-.2.9-.5 1.3.2 1.8l1.9 1.6-9.3 7.5c-.9.6-.6 1-.3 2.2l.9 3-9.1-.8c-1.1-.1-1.7.1-1.7.9l.3 9.4h-2.6l.3-9.4c0-.8-.6-1-1.7-.9l-9.1.8.9-3c.3-1.2.6-1.6-.3-2.2l-9.3-7.5 1.9-1.6c.7-.5.4-.9.2-1.8l-1.6-6 4.5.9c.9.2 1.6.3 1.9-.4l1.6-3.5 6.1 6.8c.9 1.1 2.7 1.1 2.2-1.5l-2.6-13.8 3.5 1.8c1 .5 2 .6 2.6-.4z"/>
  </g>
  <circle cx="78" cy="80" r="7" fill="#e4002b"/>
</svg>
