<svg xmlns="http://www.w3.org/2000/svg" viewBox="0 0 240 240" width="240" height="240">
  <defs><linearGradient id="t" x1="0" y1="0" x2="0" y2="1"><stop offset="0" stop-color="#ffffff"/><stop offset="1" stop-color="#eceae6"/></linearGradient></defs>
  <path d="M120 40c-12 0-20 8-30 12L46 74c-8 4-11 8-9 16l7 26c2 7 7 9 13 7l13-4v66c0 6 4 9 9 9h82c5 0 9-3 9-9v-66l13 4c6 2 11 0 13-7l7-26c2-8-1-12-9-16l-44-22c-10-4-18-12-30-12z" fill="url(#t)" stroke="#d9d6d0" stroke-width="2"/>
  <path d="M92 52c8 12 20 18 28 18s20-6 28-18c-8-4-16-12-28-12s-20 8-28 12z" fill="#f3f1ed" stroke="#d9d6d0" stroke-width="2"/>
  <g transform="translate(63,78) scale(1.1)" fill="#d80621">
    <path d="M52.1 4.9l4.9 9.1c.6 1 1.6.9 2.6.4l3.5-1.8-2.6 13.8c-.5 2.6 1.3 2.6 2.2 1.5l6.1-6.8 1.6 3.5c.3.7 1 .6 1.9.4l4.5-.9-1.6 6c-.2.9-.5 1.3.2 1.8l1.9 1.6-9.3 7.5c-.9.6-.6 1-.3 2.2l.9 3-9.1-.8c-1.1-.1-1.7.1-1.7.9l.3 9.4h-2.6l.3-9.4c0-.8-.6-1-1.7-.9l-9.1.8.9-3c.3-1.2.6-1.6-.3-2.2l-9.3-7.5 1.9-1.6c.7-.5.4-.9.2-1.8l-1.6-6 4.5.9c.9.2 1.6.3 1.9-.4l1.6-3.5 6.1 6.8c.9 1.1 2.7 1.1 2.2-1.5l-2.6-13.8 3.5 1.8c1 .5 2 .6 2.6-.4z"/>
  </g>
</svg>
